HIERARCHY
ROOT hip
{
	OFFSET 0.000000 0.000000 0.000000 
	CHANNELS 6 Xposition Yposition Zposition Xrotation Zrotation Yrotation
	JOINT abdomen
	{
		OFFSET 0.000000 3.402643 0.000000 
		CHANNELS 3 Xrotation Zrotation Yrotation
		JOINT chest
		{
			OFFSET 0.000000 8.438565 -0.680529 
			CHANNELS 3 Xrotation Zrotation Yrotation
			JOINT neck
			{
				OFFSET 0.000000 10.207942 -0.272212 
				CHANNELS 3 Xrotation Zrotation Yrotation
				JOINT head
				{
					OFFSET 0.000000 3.130431 0.000000 
					CHANNELS 3 Xrotation Zrotation Yrotation
					End Site
					{
						OFFSET 0.000000 3.130435 0.000000 
					}
				}
			}
			JOINT lCollar
			{
				OFFSET 3.470700 6.669187 -0.816635 
				CHANNELS 3 Yrotation Zrotation Xrotation
				JOINT lShldr
				{
					OFFSET 3.198488 0.000000 0.000000 
					CHANNELS 3 Zrotation Yrotation Xrotation
					JOINT lForeArm
					{
						OFFSET 10.139888 0.000000 0.000000 
						CHANNELS 3 Yrotation Zrotation Xrotation
						JOINT lHand
						{
							OFFSET 8.370511 0.000000 0.000000 
							CHANNELS 3 Zrotation Yrotation Xrotation
							End Site
							{
								OFFSET 4.083176 0.000000 0.000000 
							}
						}
					}
				}
			}
			JOINT rCollar
			{
				OFFSET -3.470700 6.669187 -0.816635 
				CHANNELS 3 Yrotation Zrotation Xrotation
				JOINT rShldr
				{
					OFFSET -3.198488 0.000000 0.000000 
					CHANNELS 3 Zrotation Yrotation Xrotation
					JOINT rForeArm
					{
						OFFSET -10.139888 0.000000 0.000000 
						CHANNELS 3 Yrotation Zrotation Xrotation
						JOINT rHand
						{
							OFFSET -8.370511 0.000000 0.000000 
							CHANNELS 3 Zrotation Yrotation Xrotation
							End Site
							{
								OFFSET -4.083176 0.000000 0.000000 
							}
						}
					}
				}
			}
		}
	}
	JOINT lThigh
	{
		OFFSET 5.308129 -1.633274 1.361059 
		CHANNELS 3 Xrotation Zrotation Yrotation
		JOINT lShin
		{
			OFFSET -2.041588 -20.007561 0.000000 
			CHANNELS 3 Xrotation Zrotation Yrotation
			JOINT lFoot
			{
				OFFSET 0.000000 -19.190928 -1.224953 
				CHANNELS 3 Xrotation Yrotation Zrotation
				End Site
				{
					OFFSET 0.000000 -2.449906 4.627600 
				}
			}
		}
	}
	JOINT rThigh
	{
		OFFSET -5.308129 -1.633274 1.361059 
		CHANNELS 3 Xrotation Zrotation Yrotation
		JOINT rShin
		{
			OFFSET 2.041588 -20.007561 0.000000 
			CHANNELS 3 Xrotation Zrotation Yrotation
			JOINT rFoot
			{
				OFFSET 0.000000 -19.190928 -1.224953 
				CHANNELS 3 Xrotation Yrotation Zrotation
				End Site
				{
					OFFSET 0.000000 -2.449906 4.627600 
				}
			}
		}
	}
}
MOTION
Frames: 11
Frame Time: 0.041667
0.425609 54.725780 -0.657007 0.000000 0.000000 0.000000 -18.462227 -6.435156 -2.302269 -7.357862 -7.686031 -0.720553 0.000000 0.000000 0.000000 -4.208163 -8.576952 0.000000 1.970245 -5.578227 -0.076799 -64.242767 10.400640 16.912437 -21.508549 -5.732569 0.192178 5.969501 -0.173100 0.175700 2.292350 10.220989 -2.528008 91.242081 112.205650 40.572990 36.846573 -6.705834 -11.204081 6.956585 16.866327 -7.652540 -1.313095 2.571503 0.137303 -0.197135 -2.167449 0.089470 3.162934 0.617859 -0.847148 -1.518092 -4.445917 -0.131956 0.258829 2.184412 -0.552070 2.906041 -1.175971 2.051390 
0.728104 54.530224 -0.615608 0.000000 0.000000 0.000000 -18.350201 -6.416030 -2.364520 -7.260890 -8.003970 -0.744607 0.000000 0.000000 0.000000 -3.695874 -8.211738 0.000000 1.949009 -5.524940 -0.076613 -65.284439 10.273890 16.742189 -21.668104 -5.188854 0.175201 5.969500 -0.173100 0.175700 2.391560 10.671200 -2.586380 81.312698 111.826149 26.660801 33.529060 2.071090 -11.248200 6.956810 16.662230 -7.603867 -2.430530 2.259862 0.130664 2.238707 -2.304533 -0.098054 1.209920 0.754340 -0.379072 -2.496765 -4.886356 -0.162796 2.399973 2.305061 -0.390717 1.115617 -1.189665 2.355482 
1.233691 54.170513 -0.316188 0.000000 0.000000 0.000000 -18.406370 -6.190237 -2.210998 -7.466045 -7.953323 -0.671876 0.000000 0.000000 0.000000 -2.797324 -7.570590 0.000000 1.910394 -5.425187 -0.076192 -67.049835 10.043986 16.453867 -21.911396 -4.171848 0.147351 5.969500 -0.173100 0.175700 0.559443 10.223135 -2.142219 74.335144 110.239838 17.538834 36.198814 7.511246 -11.363072 6.956007 16.302444 -7.747791 -4.765593 1.778761 0.173521 7.927492 -2.606044 -0.550464 -3.588687 1.019355 0.451772 -4.919104 -5.672679 -0.180185 8.256229 2.556795 0.070514 -3.724045 -1.273722 2.839514 
1.621486 53.830383 0.106278 0.000000 0.000000 0.000000 -18.583536 -5.853633 -1.926339 -7.725460 -7.321616 -0.652776 0.000000 0.000000 0.000000 -2.000000 -7.000000 0.000000 1.873970 -5.324620 -0.075601 -68.381203 9.831050 16.237301 -22.036301 -3.170100 0.127881 5.969500 -0.173100 0.175700 -2.026835 9.990675 -1.542312 70.985390 102.841331 13.595734 44.506702 10.126514 -11.550363 6.957000 15.990400 -7.936069 -6.090680 1.522845 0.206372 11.805382 -2.790720 -0.870256 -6.134072 1.148367 0.959938 -6.247003 -6.127699 -0.164317 12.118512 2.673257 0.392223 -6.241146 -1.311704 3.141376 
1.564440 53.598572 0.486123 0.000000 0.000000 0.000000 -18.776627 -5.374975 -1.628409 -7.784205 -6.021299 -0.811614 0.000000 0.000000 0.000000 -1.665936 -6.757668 0.000000 1.859678 -5.271892 -0.074959 -68.238205 9.750854 16.262520 -21.847637 -2.633568 0.135411 5.969500 -0.173100 0.175700 -4.129225 11.081052 -1.137352 70.143127 86.027260 12.991140 57.865162 10.922146 -11.761324 6.961335 15.901689 -8.031811 -6.144023 1.465432 0.218631 12.919188 -2.819340 -0.971956 -7.189044 1.182586 1.060579 -6.466283 -6.253229 -0.158700 13.577843 2.753196 0.519873 -7.480552 -1.332640 3.164817 
1.117094 53.278408 0.734656 0.000000 0.000000 0.000000 -18.827890 -4.659113 -1.397621 -7.714650 -4.372087 -0.986421 0.000000 0.000000 0.000000 -1.684498 -6.768127 0.000000 1.866583 -5.272317 -0.074470 -67.134781 9.781158 16.443708 -21.425949 -2.449459 0.163682 5.969500 -0.173100 0.175700 -5.453692 12.872301 -0.898504 69.369423 66.763870 12.860726 73.905891 9.689853 -11.709004 6.961878 15.933998 -8.171005 -8.300612 2.157671 0.319653 18.102983 -2.978153 -1.409932 -10.206262 1.179192 0.661921 -8.405559 -5.817995 -0.099392 18.282452 2.881802 0.940918 -10.273474 -1.497364 2.492340 
0.438358 52.647800 0.800076 0.000000 0.000000 0.000000 -18.637310 -3.464229 -1.287722 -7.652396 -2.904459 -0.988357 0.000000 0.000000 0.000000 -1.843849 -6.883574 0.000000 1.887720 -5.316846 -0.074318 -65.917282 9.864887 16.640667 -20.918135 -2.377169 0.200412 5.969501 -0.173100 0.175700 -5.976551 14.418321 -0.727090 66.253326 53.051014 10.644007 89.661713 6.040726 -11.196060 6.954653 15.960863 -8.473221 -11.620092 3.188986 0.387112 25.259020 -3.108805 -2.052621 -14.014743 1.169737 0.046106 -11.702016 -5.155827 -0.057965 25.379332 3.066336 1.565711 -14.077242 -1.718881 1.438276 
-0.276936 51.668259 0.701159 0.000000 0.000000 0.000000 -18.388502 -1.025742 -1.283268 -7.658696 -2.584694 -0.807381 0.000000 0.000000 0.000000 -2.000000 -7.000000 0.000000 1.912900 -5.382300 -0.074500 -65.207397 9.943600 16.751499 -20.460800 -2.227600 0.234100 5.969500 -0.173100 0.175700 -5.811564 15.205659 -0.624590 59.814404 46.453327 6.019701 101.550827 0.076991 -10.621794 6.957000 16.037100 -8.719500 -15.788959 4.340940 0.298868 33.756512 -3.220602 -2.833455 -18.313593 1.169318 -0.573287 -15.795181 -4.436372 -0.155046 33.722858 3.128679 2.310248 -18.353662 -1.888794 0.290662 
-0.841287 50.465206 0.491641 0.000000 0.000000 0.000000 -18.277142 2.950306 -1.357502 -7.760851 -4.073065 -0.504504 0.000000 0.000000 0.000000 -2.056334 -7.045659 0.000000 1.933283 -5.446052 -0.074951 -65.354668 9.977806 16.719870 -20.172552 -1.931204 0.255295 5.969500 -0.173100 0.175700 -5.160415 14.948995 -0.610614 50.898174 46.806927 0.184559 106.611069 -7.651227 -10.420487 6.984405 16.222927 -8.687499 -20.042822 5.295606 0.073601 42.060150 -3.217938 -3.610500 -22.343033 1.189393 -1.034802 -19.984266 -3.886045 -0.377147 41.950764 3.044908 3.055338 -22.394672 -2.014693 -0.691756 
-1.132422 49.636005 0.294503 0.000000 0.000000 0.000000 -18.263441 6.352640 -1.507615 -7.924688 -6.370040 -0.246136 0.000000 0.000000 0.000000 -2.037861 -7.034053 0.000000 1.948664 -5.501795 -0.075536 -65.844490 10.005184 16.633327 -20.110247 -1.845129 0.261957 5.969500 -0.173100 0.175700 -4.439007 13.842856 -0.677140 46.223431 53.469040 -1.831737 104.973389 -15.293384 -10.569688 7.023629 16.418848 -8.479826 -22.691492 5.810100 -0.121828 47.001907 -3.170360 -4.080882 -24.639637 1.220665 -1.256835 -22.580891 -3.608152 -0.563717 46.844936 2.940793 3.480984 -24.685324 -2.058259 -1.250924 
-1.044373 49.896034 0.250033 0.000000 0.000000 0.000000 -18.248739 6.468640 -1.736784 -8.100664 -8.061107 -0.225040 0.000000 0.000000 0.000000 -2.000000 -7.000000 0.000000 1.961000 -5.547300 -0.076100 -65.946198 10.082700 16.615400 -20.315300 -2.433200 0.253900 5.969500 -0.173100 0.175700 -4.116806 12.201752 -0.809238 53.977322 65.677094 5.958751 97.542030 -20.673754 -10.932756 7.054251 16.485439 -8.280325 -21.968473 5.655713 -0.049303 45.377064 -3.202010 -3.931372 -23.740725 1.205301 -1.191955 -21.870745 -3.680122 -0.496195 45.221161 2.973019 3.325709 -23.774643 -2.045966 -1.055524 
